<mxfile host="app.diagrams.net" modified="2023-12-13T01:14:10.021Z" agent="Mozilla/5.0 (Windows NT 10.0; Win64; x64) AppleWebKit/537.36 (KHTML, like Gecko) Chrome/120.0.0.0 Safari/537.36 Edg/120.0.0.0" version="22.1.7" etag="7IJQ0qDpkmh_oMl3uhsL" type="github">
  <diagram name="第 1 页" id="ZRY4WDD3s0EOswIIjKSG">
    <mxGraphModel>
      <root>
        <mxCell id="0" />
        <mxCell id="1" parent="0" />
      </root>
    </mxGraphModel>
  </diagram>
</mxfile>
